<?xml version="1.0" encoding="UTF-8" standalone="no"?>
<!DOCTYPE svg PUBLIC "-//W3C//DTD SVG 1.1//EN"
 "http://www.w3.org/Graphics/SVG/1.1/DTD/svg11.dtd">
<!-- Generated by graphviz version 14.1.4 (0)
 -->
<!-- Title: ControlFlow Pages: 1 -->
<svg width="1957pt" height="1576pt"
 viewBox="0.00 0.00 1957.00 1576.00" xmlns="http://www.w3.org/2000/svg" xmlns:xlink="http://www.w3.org/1999/xlink">
<g id="graph0" class="graph" transform="scale(1 1) rotate(0) translate(4 1572)">
<title>ControlFlow</title>
<polygon fill="#1f2328" stroke="none" points="-4,4 -4,-1572 1953.1,-1572 1953.1,4 -4,4"/>
<g id="clust1" class="cluster">
<title>cluster_ai</title>
<polygon fill="#1f2328" stroke="#8b949e" stroke-width="2" points="338.37,-8 338.37,-188 1399.74,-188 1399.74,-8 338.37,-8"/>
<text xml:space="preserve" text-anchor="middle" x="869.05" y="-170.7" font-family="Times,serif" font-size="14.00" fill="#b1bac4">AI</text>
</g>
<g id="clust2" class="cluster">
<title>cluster_ai_center</title>
<polygon fill="#1f2328" stroke="#9ca3af" stroke-dasharray="5,2" points="732.12,-16 732.12,-111 1391.74,-111 1391.74,-16 732.12,-16"/>
<text xml:space="preserve" text-anchor="middle" x="1061.93" y="-93.7" font-family="Times,serif" font-size="14.00" fill="#b1bac4">Center</text>
</g>
<g id="clust3" class="cluster">
<title>cluster_player</title>
<polygon fill="#1f2328" stroke="#8b949e" stroke-width="2" points="502.24,-726 502.24,-1560 1793.99,-1560 1793.99,-726 502.24,-726"/>
<text xml:space="preserve" text-anchor="middle" x="1148.12" y="-1542.7" font-family="Times,serif" font-size="14.00" fill="#b1bac4">Player</text>
</g>
<g id="clust4" class="cluster">
<title>cluster_terminal_logic</title>
</g>
<g id="clust5" class="cluster">
<title>cluster_player_center</title>
<polygon fill="#1f2328" stroke="#9ca3af" stroke-dasharray="5,2" points="724.12,-1335 724.12,-1527 1384.37,-1527 1384.37,-1335 724.12,-1335"/>
<text xml:space="preserve" text-anchor="middle" x="1054.24" y="-1509.7" font-family="Times,serif" font-size="14.00" fill="#b1bac4">Center</text>
</g>
<g id="clust6" class="cluster">
<title>cluster_player_center_edge</title>
</g>
<g id="clust7" class="cluster">
<title>cluster_player_corner</title>
<polygon fill="#1f2328" stroke="#9ca3af" stroke-dasharray="5,2" points="731.74,-1250 731.74,-1327 1361.62,-1327 1361.62,-1250 731.74,-1250"/>
<text xml:space="preserve" text-anchor="middle" x="1046.68" y="-1309.7" font-family="Times,serif" font-size="14.00" fill="#b1bac4">Corner</text>
</g>
<g id="clust8" class="cluster">
<title>cluster_player_edge</title>
<polygon fill="#1f2328" stroke="#9ca3af" stroke-dasharray="5,2" points="735.99,-734 735.99,-1065 1369.62,-1065 1369.62,-734 735.99,-734"/>
<text xml:space="preserve" text-anchor="middle" x="1052.8" y="-1047.7" font-family="Times,serif" font-size="14.00" fill="#b1bac4">Edge</text>
</g>
<g id="clust9" class="cluster">
<title>cluster_adj_edge</title>
<polygon fill="#1f2328" stroke="#c0c5cc" stroke-dasharray="1,5" points="1059.24,-878 1059.24,-955 1361.62,-955 1361.62,-878 1059.24,-878"/>
<text xml:space="preserve" text-anchor="middle" x="1210.43" y="-937.7" font-family="Times,serif" font-size="14.00" fill="#b1bac4">Adjacent Edge</text>
</g>
<!-- win -->
<g id="node1" class="node">
<title>win</title>
<ellipse fill="#2ea043" stroke="#2ea043" stroke-width="2" cx="1528.99" cy="-683" rx="30.69" ry="30.69"/>
<ellipse fill="none" stroke="#2ea043" stroke-width="2" cx="1528.99" cy="-683" rx="34.69" ry="34.69"/>
<text xml:space="preserve" text-anchor="middle" x="1528.99" y="-678.33" font-family="Times,serif" font-size="14.00" fill="#0d1117">Win</text>
</g>
<!-- draw -->
<g id="node2" class="node">
<title>draw</title>
<ellipse fill="#8b949e" stroke="#8b949e" stroke-width="2" cx="1907.05" cy="-1126" rx="38.06" ry="38.06"/>
<ellipse fill="none" stroke="#8b949e" stroke-width="2" cx="1907.05" cy="-1126" rx="42.06" ry="42.06"/>
<text xml:space="preserve" text-anchor="middle" x="1907.05" y="-1121.33" font-family="Times,serif" font-size="14.00" fill="#0d1117">Draw</text>
</g>
<!-- fork -->
<g id="node3" class="node">
<title>fork</title>
<polygon fill="none" stroke="#6e7681" points="1353.62,-504 1299.62,-504 1299.62,-468 1353.62,-468 1353.62,-504"/>
<text xml:space="preserve" text-anchor="middle" x="1326.62" y="-481.32" font-family="Times,serif" font-size="14.00" fill="#b1bac4">fork</text>
</g>
<!-- fork&#45;&gt;win -->
<g id="edge53" class="edge">
<title>fork&#45;&gt;win</title>
<path fill="none" stroke="#6e7681" d="M1353.7,-493.23C1375.34,-500.21 1405.97,-512.47 1427.74,-531 1463.63,-561.54 1491.72,-608.06 1508.92,-641.59"/>
<polygon fill="#6e7681" stroke="#6e7681" points="1505.62,-642.81 1513.23,-650.19 1511.88,-639.68 1505.62,-642.81"/>
</g>
<!-- game -->
<g id="node4" class="node">
<title>game</title>
<polygon fill="none" stroke="#6e7681" stroke-width="2" points="70.75,-436 0,-364 70.75,-292 141.49,-364 70.75,-436"/>
<text xml:space="preserve" text-anchor="middle" x="70.75" y="-359.32" font-family="Times,serif" font-size="14.00" fill="#b1bac4">Start Game</text>
</g>
<!-- ai -->
<g id="node5" class="node">
<title>ai</title>
<polygon fill="none" stroke="#6e7681" points="400.37,-155 346.37,-155 346.37,-119 400.37,-119 400.37,-155"/>
<text xml:space="preserve" text-anchor="middle" x="373.37" y="-132.32" font-family="Times,serif" font-size="14.00" fill="#b1bac4">ai</text>
</g>
<!-- game&#45;&gt;ai -->
<g id="edge1" class="edge">
<title>game&#45;&gt;ai</title>
<path fill="none" stroke="#6e7681" d="M111.98,-333.62C171.87,-288.4 283.38,-204.2 339.01,-162.19"/>
<polygon fill="#6e7681" stroke="#6e7681" points="341,-165.07 346.87,-156.25 336.78,-159.48 341,-165.07"/>
<text xml:space="preserve" text-anchor="middle" x="232.49" y="-281.46" font-family="Times,serif" font-size="14.00" fill="#b1bac4">ai_start=true</text>
</g>
<!-- player -->
<g id="node6" class="node">
<title>player</title>
<polygon fill="none" stroke="#6e7681" points="571.24,-1121 510.24,-1121 510.24,-1085 571.24,-1085 571.24,-1121"/>
<text xml:space="preserve" text-anchor="middle" x="540.74" y="-1098.33" font-family="Times,serif" font-size="14.00" fill="#b1bac4">player</text>
</g>
<!-- game&#45;&gt;player -->
<g id="edge2" class="edge">
<title>game&#45;&gt;player</title>
<path fill="none" stroke="#6e7681" d="M99.27,-407.47C185.82,-544.13 450.87,-962.66 522.01,-1075"/>
<polygon fill="#6e7681" stroke="#6e7681" points="518.98,-1076.75 527.29,-1083.33 524.89,-1073.01 518.98,-1076.75"/>
<text xml:space="preserve" text-anchor="middle" x="373.37" y="-920.81" font-family="Times,serif" font-size="14.00" fill="#b1bac4">ai_start=false</text>
</g>
<!-- next -->
<g id="node7" class="node">
<title>next</title>
<polygon fill="none" stroke="#6e7681" points="567.74,-155 513.74,-155 513.74,-119 567.74,-119 567.74,-155"/>
<text xml:space="preserve" text-anchor="middle" x="540.74" y="-132.32" font-family="Times,serif" font-size="14.00" fill="#b1bac4">next</text>
</g>
<!-- ai&#45;&gt;next -->
<g id="edge3" class="edge">
<title>ai&#45;&gt;next</title>
<path fill="none" stroke="#6e7681" d="M400.57,-137C427.95,-137 471.15,-137 502.16,-137"/>
<polygon fill="#6e7681" stroke="#6e7681" points="501.87,-140.5 511.87,-137 501.87,-133.5 501.87,-140.5"/>
</g>
<!-- player_center -->
<g id="node12" class="node">
<title>player_center</title>
<polygon fill="none" stroke="#6e7681" points="801.87,-1396 740.12,-1396 740.12,-1360 801.87,-1360 801.87,-1396"/>
<text xml:space="preserve" text-anchor="middle" x="770.99" y="-1373.33" font-family="Times,serif" font-size="14.00" fill="#b1bac4">center</text>
</g>
<!-- player&#45;&gt;player_center -->
<g id="edge8" class="edge">
<title>player&#45;&gt;player_center</title>
<path fill="none" stroke="#6e7681" d="M548.19,-1121.03C558.93,-1149.52 582.5,-1205.81 614.24,-1246 648.48,-1289.35 698.75,-1328.84 732.85,-1353.1"/>
<polygon fill="#6e7681" stroke="#6e7681" points="730.58,-1355.78 740.77,-1358.66 734.6,-1350.05 730.58,-1355.78"/>
<text xml:space="preserve" text-anchor="middle" x="655.49" y="-1327.18" font-family="Times,serif" font-size="14.00" fill="#b1bac4">Center</text>
</g>
<!-- player_corner -->
<g id="node13" class="node">
<title>player_corner</title>
<polygon fill="none" stroke="#6e7681" points="802.24,-1294 739.74,-1294 739.74,-1258 802.24,-1258 802.24,-1294"/>
<text xml:space="preserve" text-anchor="middle" x="770.99" y="-1271.33" font-family="Times,serif" font-size="14.00" fill="#b1bac4">corner</text>
</g>
<!-- player&#45;&gt;player_corner -->
<g id="edge9" class="edge">
<title>player&#45;&gt;player_corner</title>
<path fill="none" stroke="#6e7681" d="M565.74,-1121.19C606.64,-1152.19 689.96,-1215.34 736.55,-1250.65"/>
<polygon fill="#6e7681" stroke="#6e7681" points="734.34,-1253.37 744.43,-1256.62 738.57,-1247.79 734.34,-1253.37"/>
<text xml:space="preserve" text-anchor="middle" x="655.49" y="-1223.99" font-family="Times,serif" font-size="14.00" fill="#b1bac4">Corner</text>
</g>
<!-- player_edge -->
<g id="node14" class="node">
<title>player_edge</title>
<polygon fill="none" stroke="#6e7681" points="797.99,-990 743.99,-990 743.99,-954 797.99,-954 797.99,-990"/>
<text xml:space="preserve" text-anchor="middle" x="770.99" y="-967.33" font-family="Times,serif" font-size="14.00" fill="#b1bac4">edge</text>
</g>
<!-- player&#45;&gt;player_edge -->
<g id="edge10" class="edge">
<title>player&#45;&gt;player_edge</title>
<path fill="none" stroke="#6e7681" d="M571.58,-1085.87C613.29,-1061.94 688.92,-1018.53 733.79,-992.78"/>
<polygon fill="#6e7681" stroke="#6e7681" points="735.44,-995.87 742.37,-987.85 731.96,-989.79 735.44,-995.87"/>
<text xml:space="preserve" text-anchor="middle" x="655.49" y="-1064.58" font-family="Times,serif" font-size="14.00" fill="#b1bac4">Edge</text>
</g>
<!-- end -->
<g id="node8" class="node">
<title>end</title>
<polygon fill="none" stroke="#6e7681" points="797.99,-155 743.99,-155 743.99,-119 797.99,-119 797.99,-155"/>
<text xml:space="preserve" text-anchor="middle" x="770.99" y="-132.32" font-family="Times,serif" font-size="14.00" fill="#b1bac4">end</text>
</g>
<!-- next&#45;&gt;end -->
<g id="edge4" class="edge">
<title>next&#45;&gt;end</title>
<path fill="none" stroke="#6e7681" d="M567.93,-137C608.32,-137 686.01,-137 732.41,-137"/>
<polygon fill="#6e7681" stroke="#6e7681" points="732.25,-140.5 742.25,-137 732.25,-133.5 732.25,-140.5"/>
<text xml:space="preserve" text-anchor="middle" x="655.49" y="-140.95" font-family="Times,serif" font-size="14.00" fill="#b1bac4">Non Center</text>
</g>
<!-- ai_center -->
<g id="node9" class="node">
<title>ai_center</title>
<polygon fill="none" stroke="#6e7681" points="801.87,-78 740.12,-78 740.12,-42 801.87,-42 801.87,-78"/>
<text xml:space="preserve" text-anchor="middle" x="770.99" y="-55.33" font-family="Times,serif" font-size="14.00" fill="#b1bac4">center</text>
</g>
<!-- next&#45;&gt;ai_center -->
<g id="edge5" class="edge">
<title>next&#45;&gt;ai_center</title>
<path fill="none" stroke="#6e7681" d="M567.93,-128.17C607.39,-114.86 682.44,-89.54 729.13,-73.78"/>
<polygon fill="#6e7681" stroke="#6e7681" points="729.99,-77.19 738.35,-70.67 727.76,-70.55 729.99,-77.19"/>
</g>
<!-- end&#45;&gt;fork -->
<g id="edge28" class="edge">
<title>end&#45;&gt;fork</title>
<path fill="none" stroke="#6e7681" d="M798.42,-150.03C812.34,-156.88 829.71,-165.41 845.24,-173 1014.48,-255.65 1080.26,-239.31 1226.49,-358 1261.67,-386.55 1291.85,-429.9 1309.38,-458.09"/>
<polygon fill="#6e7681" stroke="#6e7681" points="1306.27,-459.72 1314.46,-466.44 1312.25,-456.08 1306.27,-459.72"/>
</g>
<!-- ai_center&#45;&gt;fork -->
<g id="edge29" class="edge">
<title>ai_center&#45;&gt;fork</title>
<path fill="none" stroke="#6e7681" d="M802.2,-70.84C895.76,-104.45 1174.9,-205.07 1182.49,-211.75 1260.39,-280.34 1302.24,-401.66 1318.08,-457.01"/>
<polygon fill="#6e7681" stroke="#6e7681" points="1314.61,-457.62 1320.66,-466.32 1321.36,-455.75 1314.61,-457.62"/>
<text xml:space="preserve" text-anchor="middle" x="1094.24" y="-215.7" font-family="Times,serif" font-size="14.00" fill="#b1bac4">Corner</text>
</g>
<!-- ai_center_next -->
<g id="node10" class="node">
<title>ai_center_next</title>
<polygon fill="none" stroke="#6e7681" points="1153.99,-78 1034.49,-78 1034.49,-42 1153.99,-42 1153.99,-78"/>
<text xml:space="preserve" text-anchor="middle" x="1094.24" y="-55.33" font-family="Times,serif" font-size="14.00" fill="#b1bac4">ai_center_next</text>
</g>
<!-- ai_center&#45;&gt;ai_center_next -->
<g id="edge6" class="edge">
<title>ai_center&#45;&gt;ai_center_next</title>
<path fill="none" stroke="#6e7681" d="M802.21,-60C852.37,-60 954.09,-60 1022.97,-60"/>
<polygon fill="#6e7681" stroke="#6e7681" points="1022.64,-63.5 1032.64,-60 1022.64,-56.5 1022.64,-63.5"/>
<text xml:space="preserve" text-anchor="middle" x="904.12" y="-63.95" font-family="Times,serif" font-size="14.00" fill="#b1bac4">Edge</text>
</g>
<!-- ai_center_next&#45;&gt;win -->
<g id="edge30" class="edge">
<title>ai_center_next&#45;&gt;win</title>
<path fill="none" stroke="#6e7681" d="M1124.33,-78.35C1184.16,-117.48 1321.9,-215.04 1399.74,-330 1466.75,-428.97 1503.55,-567.18 1519.05,-637.7"/>
<polygon fill="#6e7681" stroke="#6e7681" points="1515.6,-638.31 1521.12,-647.35 1522.44,-636.84 1515.6,-638.31"/>
</g>
<!-- ai_center_end -->
<g id="node11" class="node">
<title>ai_center_end</title>
<polygon fill="none" stroke="#6e7681" points="1383.74,-78 1269.49,-78 1269.49,-42 1383.74,-42 1383.74,-78"/>
<text xml:space="preserve" text-anchor="middle" x="1326.62" y="-55.33" font-family="Times,serif" font-size="14.00" fill="#b1bac4">ai_center_end</text>
</g>
<!-- ai_center_next&#45;&gt;ai_center_end -->
<g id="edge7" class="edge">
<title>ai_center_next&#45;&gt;ai_center_end</title>
<path fill="none" stroke="#6e7681" d="M1154.27,-60C1185.87,-60 1224.94,-60 1257.79,-60"/>
<polygon fill="#6e7681" stroke="#6e7681" points="1257.61,-63.5 1267.61,-60 1257.61,-56.5 1257.61,-63.5"/>
</g>
<!-- ai_center_end&#45;&gt;win -->
<g id="edge31" class="edge">
<title>ai_center_end&#45;&gt;win</title>
<path fill="none" stroke="#6e7681" d="M1363.18,-78.49C1386.31,-92.69 1414.53,-114.66 1427.74,-143 1433.02,-154.33 1496.92,-509.44 1519.86,-637.52"/>
<polygon fill="#6e7681" stroke="#6e7681" points="1516.41,-638.11 1521.62,-647.34 1523.3,-636.88 1516.41,-638.11"/>
</g>
<!-- ai_center_end&#45;&gt;draw -->
<g id="edge32" class="edge">
<title>ai_center_end&#45;&gt;draw</title>
<path fill="none" stroke="#6e7681" d="M1360.16,-78.32C1381.5,-91.61 1408.85,-111.2 1427.74,-134 1685.91,-445.66 1844.15,-920.13 1891.21,-1075.1"/>
<polygon fill="#6e7681" stroke="#6e7681" points="1887.73,-1075.69 1893.97,-1084.25 1894.44,-1073.67 1887.73,-1075.69"/>
</g>
<!-- center_and_edge -->
<g id="node19" class="node">
<title>center_and_edge</title>
<polygon fill="none" stroke="#6e7681" points="1162.24,-1189 1026.24,-1189 1026.24,-1153 1162.24,-1153 1162.24,-1189"/>
<text xml:space="preserve" text-anchor="middle" x="1094.24" y="-1166.33" font-family="Times,serif" font-size="14.00" fill="#b1bac4">center_and_edge</text>
</g>
<!-- player_center&#45;&gt;center_and_edge -->
<g id="edge17" class="edge">
<title>player_center&#45;&gt;center_and_edge</title>
<path fill="none" stroke="#6e7681" d="M800.5,-1359.63C858.49,-1322.27 990.18,-1237.41 1055.31,-1195.44"/>
<polygon fill="#6e7681" stroke="#6e7681" points="1057.01,-1198.51 1063.53,-1190.15 1053.22,-1192.62 1057.01,-1198.51"/>
<text xml:space="preserve" text-anchor="middle" x="904.12" y="-1331.93" font-family="Times,serif" font-size="14.00" fill="#b1bac4">Adjacent Edge</text>
</g>
<!-- player_center_corner -->
<g id="node20" class="node">
<title>player_center_corner</title>
<polygon fill="none" stroke="#6e7681" points="1357.87,-1482 1295.37,-1482 1295.37,-1446 1357.87,-1446 1357.87,-1482"/>
<text xml:space="preserve" text-anchor="middle" x="1326.62" y="-1459.33" font-family="Times,serif" font-size="14.00" fill="#b1bac4">corner</text>
</g>
<!-- player_center&#45;&gt;player_center_corner -->
<g id="edge16" class="edge">
<title>player_center&#45;&gt;player_center_corner</title>
<path fill="none" stroke="#6e7681" d="M802.19,-1386.41C874.53,-1406.06 1063.77,-1454.59 1225.49,-1471 1244.55,-1472.93 1265.7,-1471.92 1283.63,-1470.13"/>
<polygon fill="#6e7681" stroke="#6e7681" points="1283.85,-1473.62 1293.4,-1469.03 1283.07,-1466.67 1283.85,-1473.62"/>
<text xml:space="preserve" text-anchor="middle" x="1094.24" y="-1469.23" font-family="Times,serif" font-size="14.00" fill="#b1bac4">Corner</text>
</g>
<!-- player_center_opp_edge -->
<g id="node21" class="node">
<title>player_center_opp_edge</title>
<polygon fill="none" stroke="#6e7681" points="1368.37,-1387 1284.87,-1387 1284.87,-1351 1368.37,-1351 1368.37,-1387"/>
<text xml:space="preserve" text-anchor="middle" x="1326.62" y="-1364.33" font-family="Times,serif" font-size="14.00" fill="#b1bac4">opp_edge</text>
</g>
<!-- player_center&#45;&gt;player_center_opp_edge -->
<g id="edge18" class="edge">
<title>player_center&#45;&gt;player_center_opp_edge</title>
<path fill="none" stroke="#6e7681" d="M802.13,-1377.63C870.03,-1376.92 1040.19,-1375.73 1182.49,-1379.75 1201.62,-1380.29 1206.36,-1381.5 1225.49,-1382 1241.28,-1382.41 1258.37,-1380.92 1273.87,-1378.82"/>
<polygon fill="#6e7681" stroke="#6e7681" points="1273.97,-1382.35 1283.35,-1377.42 1272.94,-1375.42 1273.97,-1382.35"/>
<text xml:space="preserve" text-anchor="middle" x="1094.24" y="-1383.7" font-family="Times,serif" font-size="14.00" fill="#b1bac4">Opposite Edge</text>
</g>
<!-- y -->
<g id="node18" class="node">
<title>y</title>
<polygon fill="none" stroke="#6e7681" points="1121.24,-1117 1067.24,-1117 1067.24,-1081 1121.24,-1081 1121.24,-1117"/>
<text xml:space="preserve" text-anchor="middle" x="1094.24" y="-1094.33" font-family="Times,serif" font-size="14.00" fill="#b1bac4">y</text>
</g>
<!-- player_corner&#45;&gt;y -->
<g id="edge20" class="edge">
<title>player_corner&#45;&gt;y</title>
<path fill="none" stroke="#6e7681" d="M773.56,-1257.76C777.78,-1221.37 792.88,-1140.18 845.24,-1104.75 908.74,-1061.78 1003.87,-1075.8 1055.92,-1088.32"/>
<polygon fill="#6e7681" stroke="#6e7681" points="1054.93,-1091.68 1065.49,-1090.74 1056.65,-1084.89 1054.93,-1091.68"/>
<text xml:space="preserve" text-anchor="middle" x="904.12" y="-1108.7" font-family="Times,serif" font-size="14.00" fill="#b1bac4">Opposite Edge</text>
</g>
<!-- player_corner_next -->
<g id="node22" class="node">
<title>player_corner_next</title>
<polygon fill="none" stroke="#6e7681" points="1353.62,-1294 1299.62,-1294 1299.62,-1258 1353.62,-1258 1353.62,-1294"/>
<text xml:space="preserve" text-anchor="middle" x="1326.62" y="-1271.33" font-family="Times,serif" font-size="14.00" fill="#b1bac4">next</text>
</g>
<!-- player_corner&#45;&gt;player_corner_next -->
<g id="edge19" class="edge">
<title>player_corner&#45;&gt;player_corner_next</title>
<path fill="none" stroke="#6e7681" d="M802.55,-1276C897.07,-1276 1184.58,-1276 1288.03,-1276"/>
<polygon fill="#6e7681" stroke="#6e7681" points="1287.92,-1279.5 1297.92,-1276 1287.92,-1272.5 1287.92,-1279.5"/>
</g>
<!-- player_edge&#45;&gt;y -->
<g id="edge21" class="edge">
<title>player_edge&#45;&gt;y</title>
<path fill="none" stroke="#6e7681" d="M798.18,-987.54C811.89,-995.26 829.13,-1004.34 845.24,-1011 895.79,-1031.89 913.27,-1023.96 962.99,-1046.75 983.56,-1056.18 985.35,-1064.73 1005.99,-1074 1021.84,-1081.11 1040.22,-1086.74 1056.01,-1090.83"/>
<polygon fill="#6e7681" stroke="#6e7681" points="1054.96,-1094.18 1065.51,-1093.18 1056.64,-1087.38 1054.96,-1094.18"/>
<text xml:space="preserve" text-anchor="middle" x="904.12" y="-1050.7" font-family="Times,serif" font-size="14.00" fill="#b1bac4">Other Corner</text>
</g>
<!-- player_edge&#45;&gt;center_and_edge -->
<g id="edge22" class="edge">
<title>player_edge&#45;&gt;center_and_edge</title>
<path fill="none" stroke="#6e7681" d="M775.08,-990.49C781.63,-1023.55 800.19,-1092.58 845.24,-1127 871.33,-1146.93 952.13,-1158.62 1014.49,-1164.88"/>
<polygon fill="#6e7681" stroke="#6e7681" points="1014.11,-1168.36 1024.4,-1165.84 1014.78,-1161.39 1014.11,-1168.36"/>
<text xml:space="preserve" text-anchor="middle" x="904.12" y="-1162.12" font-family="Times,serif" font-size="14.00" fill="#b1bac4">Center</text>
</g>
<!-- player_edge_opp_corner -->
<g id="node23" class="node">
<title>player_edge_opp_corner</title>
<polygon fill="none" stroke="#6e7681" points="1141.99,-1032 1046.49,-1032 1046.49,-996 1141.99,-996 1141.99,-1032"/>
<text xml:space="preserve" text-anchor="middle" x="1094.24" y="-1009.33" font-family="Times,serif" font-size="14.00" fill="#b1bac4">opp_corner</text>
</g>
<!-- player_edge&#45;&gt;player_edge_opp_corner -->
<g id="edge23" class="edge">
<title>player_edge&#45;&gt;player_edge_opp_corner</title>
<path fill="none" stroke="#6e7681" d="M798.35,-973.44C835.29,-975.66 904.48,-980.54 962.99,-988.75 986.7,-992.08 1012.63,-996.87 1035.07,-1001.38"/>
<polygon fill="#6e7681" stroke="#6e7681" points="1034.13,-1004.76 1044.63,-1003.33 1035.53,-997.9 1034.13,-1004.76"/>
<text xml:space="preserve" text-anchor="middle" x="904.12" y="-992.7" font-family="Times,serif" font-size="14.00" fill="#b1bac4">Opposite Corner</text>
</g>
<!-- player_edge_adj_corner -->
<g id="node24" class="node">
<title>player_edge_adj_corner</title>
<polygon fill="none" stroke="#6e7681" points="1139.74,-778 1048.74,-778 1048.74,-742 1139.74,-742 1139.74,-778"/>
<text xml:space="preserve" text-anchor="middle" x="1094.24" y="-755.33" font-family="Times,serif" font-size="14.00" fill="#b1bac4">adj_corner</text>
</g>
<!-- player_edge&#45;&gt;player_edge_adj_corner -->
<g id="edge24" class="edge">
<title>player_edge&#45;&gt;player_edge_adj_corner</title>
<path fill="none" stroke="#6e7681" d="M775.71,-953.74C783.13,-922.08 802.86,-857.1 845.24,-822.75 900.16,-778.23 982.67,-764.82 1037.22,-761.03"/>
<polygon fill="#6e7681" stroke="#6e7681" points="1037.13,-764.55 1046.9,-760.46 1036.71,-757.56 1037.13,-764.55"/>
<text xml:space="preserve" text-anchor="middle" x="904.12" y="-826.7" font-family="Times,serif" font-size="14.00" fill="#b1bac4">Adjacent Corner</text>
</g>
<!-- player_edge_opp_edge -->
<g id="node25" class="node">
<title>player_edge_opp_edge</title>
<polygon fill="none" stroke="#6e7681" points="1182.49,-850 1005.99,-850 1005.99,-814 1182.49,-814 1182.49,-850"/>
<text xml:space="preserve" text-anchor="middle" x="1094.24" y="-827.33" font-family="Times,serif" font-size="14.00" fill="#b1bac4">player_edge_opp_edge</text>
</g>
<!-- player_edge&#45;&gt;player_edge_opp_edge -->
<g id="edge25" class="edge">
<title>player_edge&#45;&gt;player_edge_opp_edge</title>
<path fill="none" stroke="#6e7681" d="M783.73,-953.77C796.59,-935.3 818.93,-907.3 845.24,-891.75 890.34,-865.1 946.7,-850.33 994.29,-842.14"/>
<polygon fill="#6e7681" stroke="#6e7681" points="994.76,-845.61 1004.06,-840.54 993.63,-838.7 994.76,-845.61"/>
<text xml:space="preserve" text-anchor="middle" x="904.12" y="-895.7" font-family="Times,serif" font-size="14.00" fill="#b1bac4">Opposite Edge</text>
</g>
<!-- player_edge_opp -->
<g id="node26" class="node">
<title>player_edge_opp</title>
<polygon fill="none" stroke="#6e7681" points="1121.24,-922 1067.24,-922 1067.24,-886 1121.24,-886 1121.24,-922"/>
<text xml:space="preserve" text-anchor="middle" x="1094.24" y="-899.33" font-family="Times,serif" font-size="14.00" fill="#b1bac4">opp</text>
</g>
<!-- player_edge&#45;&gt;player_edge_opp -->
<g id="edge26" class="edge">
<title>player_edge&#45;&gt;player_edge_opp</title>
<path fill="none" stroke="#6e7681" d="M798.2,-959C811.91,-952.7 829.16,-945.52 845.24,-941 918.22,-920.47 1006.67,-910.75 1055.77,-906.63"/>
<polygon fill="#6e7681" stroke="#6e7681" points="1055.89,-910.13 1065.58,-905.85 1055.33,-903.16 1055.89,-910.13"/>
</g>
<!-- player_edge_adj -->
<g id="node27" class="node">
<title>player_edge_adj</title>
<polygon fill="none" stroke="#6e7681" points="1353.62,-922 1299.62,-922 1299.62,-886 1353.62,-886 1353.62,-922"/>
<text xml:space="preserve" text-anchor="middle" x="1326.62" y="-899.33" font-family="Times,serif" font-size="14.00" fill="#b1bac4">adj</text>
</g>
<!-- player_edge&#45;&gt;player_edge_adj -->
<g id="edge27" class="edge">
<title>player_edge&#45;&gt;player_edge_adj</title>
<path fill="none" stroke="#6e7681" d="M798.43,-970.44C812.36,-969.65 829.72,-968.71 845.24,-968 887.59,-966.07 1186.08,-966.81 1226.49,-954 1248.23,-947.11 1249.22,-936.44 1269.49,-926 1275.51,-922.9 1282.08,-919.96 1288.52,-917.3"/>
<polygon fill="#6e7681" stroke="#6e7681" points="1289.72,-920.59 1297.74,-913.66 1287.15,-914.08 1289.72,-920.59"/>
</g>
<!-- checked_draw -->
<g id="node15" class="node">
<title>checked_draw</title>
<polygon fill="none" stroke="#6e7681" points="1587.24,-1189 1470.74,-1189 1470.74,-1153 1587.24,-1153 1587.24,-1189"/>
<text xml:space="preserve" text-anchor="middle" x="1528.99" y="-1166.33" font-family="Times,serif" font-size="14.00" fill="#b1bac4">checked_draw</text>
</g>
<!-- player_draw -->
<g id="node16" class="node">
<title>player_draw</title>
<polygon fill="none" stroke="#6e7681" points="1777.99,-1144 1674.24,-1144 1674.24,-1108 1777.99,-1108 1777.99,-1144"/>
<text xml:space="preserve" text-anchor="middle" x="1726.12" y="-1121.33" font-family="Times,serif" font-size="14.00" fill="#b1bac4">player_draw</text>
</g>
<!-- checked_draw&#45;&gt;player_draw -->
<g id="edge11" class="edge">
<title>checked_draw&#45;&gt;player_draw</title>
<path fill="none" stroke="#6e7681" d="M1587.48,-1157.74C1611.16,-1152.28 1638.65,-1145.94 1662.81,-1140.37"/>
<polygon fill="#6e7681" stroke="#6e7681" points="1663.58,-1143.78 1672.53,-1138.13 1662,-1136.96 1663.58,-1143.78"/>
</g>
<!-- player_draw&#45;&gt;draw -->
<g id="edge33" class="edge">
<title>player_draw&#45;&gt;draw</title>
<path fill="none" stroke="#6e7681" d="M1778.39,-1126C1801.91,-1126 1829.76,-1126 1853.44,-1126"/>
<polygon fill="#6e7681" stroke="#6e7681" points="1853.18,-1129.5 1863.18,-1126 1853.18,-1122.5 1853.18,-1129.5"/>
</g>
<!-- move_draw -->
<g id="node17" class="node">
<title>move_draw</title>
<polygon fill="none" stroke="#6e7681" points="1375.12,-1117 1278.12,-1117 1278.12,-1081 1375.12,-1081 1375.12,-1117"/>
<text xml:space="preserve" text-anchor="middle" x="1326.62" y="-1094.33" font-family="Times,serif" font-size="14.00" fill="#b1bac4">move_draw</text>
</g>
<!-- move_draw&#45;&gt;player_draw -->
<g id="edge12" class="edge">
<title>move_draw&#45;&gt;player_draw</title>
<path fill="none" stroke="#6e7681" d="M1375.57,-1102.26C1447.4,-1107.14 1583,-1116.35 1662.54,-1121.75"/>
<polygon fill="#6e7681" stroke="#6e7681" points="1662.13,-1125.23 1672.35,-1122.42 1662.61,-1118.25 1662.13,-1125.23"/>
</g>
<!-- y&#45;&gt;win -->
<g id="edge34" class="edge">
<title>y&#45;&gt;win</title>
<path fill="none" stroke="#6e7681" d="M1121.37,-1097.41C1140.37,-1094.98 1165.62,-1088.93 1182.49,-1074 1256.63,-1008.42 1207.7,-946.32 1269.49,-869 1330.9,-792.15 1431.82,-732.28 1487.66,-702.9"/>
<polygon fill="#6e7681" stroke="#6e7681" points="1488.94,-706.19 1496.2,-698.47 1485.71,-699.97 1488.94,-706.19"/>
</g>
<!-- y&#45;&gt;move_draw -->
<g id="edge13" class="edge">
<title>y&#45;&gt;move_draw</title>
<path fill="none" stroke="#6e7681" d="M1121.67,-1099C1156.75,-1099 1219.71,-1099 1266.43,-1099"/>
<polygon fill="#6e7681" stroke="#6e7681" points="1266.41,-1102.5 1276.41,-1099 1266.41,-1095.5 1266.41,-1102.5"/>
</g>
<!-- center_and_edge&#45;&gt;fork -->
<g id="edge35" class="edge">
<title>center_and_edge&#45;&gt;fork</title>
<path fill="none" stroke="#6e7681" d="M1160.56,-1152.53C1168.83,-1147.91 1176.49,-1142.15 1182.49,-1135 1223.55,-1086.08 1300.64,-636.37 1320.73,-515.69"/>
<polygon fill="#6e7681" stroke="#6e7681" points="1324.16,-516.38 1322.35,-505.94 1317.26,-515.23 1324.16,-516.38"/>
</g>
<!-- center_and_edge&#45;&gt;checked_draw -->
<g id="edge14" class="edge">
<title>center_and_edge&#45;&gt;checked_draw</title>
<path fill="none" stroke="#6e7681" d="M1162.38,-1171C1243.1,-1171 1377.85,-1171 1459.27,-1171"/>
<polygon fill="#6e7681" stroke="#6e7681" points="1458.88,-1174.5 1468.88,-1171 1458.88,-1167.5 1458.88,-1174.5"/>
</g>
<!-- center_and_edge&#45;&gt;move_draw -->
<g id="edge15" class="edge">
<title>center_and_edge&#45;&gt;move_draw</title>
<path fill="none" stroke="#6e7681" d="M1154.37,-1152.53C1176.94,-1145.48 1202.91,-1137.37 1226.49,-1130 1239.53,-1125.92 1253.54,-1121.54 1266.8,-1117.4"/>
<polygon fill="#6e7681" stroke="#6e7681" points="1267.78,-1120.76 1276.28,-1114.43 1265.69,-1114.08 1267.78,-1120.76"/>
</g>
<!-- player_center_corner&#45;&gt;win -->
<g id="edge36" class="edge">
<title>player_center_corner&#45;&gt;win</title>
<path fill="none" stroke="#6e7681" d="M1358.28,-1461.96C1372.88,-1459.37 1389.37,-1453.8 1399.74,-1442 1411.74,-1428.35 1495.95,-889.88 1520.99,-728.35"/>
<polygon fill="#6e7681" stroke="#6e7681" points="1524.38,-729.29 1522.45,-718.87 1517.46,-728.22 1524.38,-729.29"/>
</g>
<!-- player_center_corner&#45;&gt;checked_draw -->
<g id="edge37" class="edge">
<title>player_center_corner&#45;&gt;checked_draw</title>
<path fill="none" stroke="#6e7681" d="M1358.06,-1460.44C1372.09,-1457.47 1388.15,-1452.01 1399.74,-1442 1475.71,-1376.38 1510,-1255.84 1522.3,-1200.36"/>
<polygon fill="#6e7681" stroke="#6e7681" points="1525.69,-1201.23 1524.34,-1190.72 1518.84,-1199.78 1525.69,-1201.23"/>
</g>
<!-- player_center_opp_edge&#45;&gt;win -->
<g id="edge38" class="edge">
<title>player_center_opp_edge&#45;&gt;win</title>
<path fill="none" stroke="#6e7681" d="M1368.51,-1359.04C1380.48,-1354.1 1392.32,-1346.77 1399.74,-1336 1452.54,-1259.34 1405.01,-1008.51 1426.74,-918 1443.97,-846.27 1481.45,-768.71 1505.66,-723.07"/>
<polygon fill="#6e7681" stroke="#6e7681" points="1508.7,-724.81 1510.35,-714.34 1502.53,-721.5 1508.7,-724.81"/>
</g>
<!-- player_center_opp_edge&#45;&gt;checked_draw -->
<g id="edge39" class="edge">
<title>player_center_opp_edge&#45;&gt;checked_draw</title>
<path fill="none" stroke="#6e7681" d="M1368.51,-1354.39C1379.27,-1349.49 1390.46,-1343.35 1399.74,-1336 1449.07,-1296.96 1490.41,-1235.11 1511.95,-1199.26"/>
<polygon fill="#6e7681" stroke="#6e7681" points="1514.91,-1201.15 1516.97,-1190.76 1508.88,-1197.59 1514.91,-1201.15"/>
</g>
<!-- player_corner_next&#45;&gt;win -->
<g id="edge40" class="edge">
<title>player_corner_next&#45;&gt;win</title>
<path fill="none" stroke="#6e7681" d="M1353.81,-1266.77C1369.93,-1259.63 1389.42,-1248.04 1399.74,-1231 1440.83,-1163.13 1404.78,-951.24 1426.74,-875 1443.21,-817.83 1477.88,-758.14 1502.04,-720.79"/>
<polygon fill="#6e7681" stroke="#6e7681" points="1504.85,-722.88 1507.41,-712.6 1499,-719.04 1504.85,-722.88"/>
</g>
<!-- player_corner_next&#45;&gt;checked_draw -->
<g id="edge41" class="edge">
<title>player_corner_next&#45;&gt;checked_draw</title>
<path fill="none" stroke="#6e7681" d="M1353.81,-1262.27C1386.6,-1245.09 1443.28,-1215.39 1483.06,-1194.55"/>
<polygon fill="#6e7681" stroke="#6e7681" points="1484.46,-1197.76 1491.69,-1190.02 1481.21,-1191.56 1484.46,-1197.76"/>
</g>
<!-- player_edge_opp_corner&#45;&gt;fork -->
<g id="edge44" class="edge">
<title>player_edge_opp_corner&#45;&gt;fork</title>
<path fill="none" stroke="#6e7681" d="M1142.44,-997.29C1157.68,-989.53 1173.06,-978.69 1182.49,-964 1238.94,-876.13 1151.94,-570.14 1225.49,-496 1241.38,-479.99 1266.7,-477.58 1287.91,-479.13"/>
<polygon fill="#6e7681" stroke="#6e7681" points="1287.36,-482.59 1297.67,-480.18 1288.1,-475.63 1287.36,-482.59"/>
</g>
<!-- player_edge_opp_corner&#45;&gt;checked_draw -->
<g id="edge42" class="edge">
<title>player_edge_opp_corner&#45;&gt;checked_draw</title>
<path fill="none" stroke="#6e7681" d="M1142.43,-1018.49C1216.12,-1026.01 1354.78,-1042.39 1399.74,-1063 1441.64,-1082.2 1480.77,-1118.96 1504.53,-1144.22"/>
<polygon fill="#6e7681" stroke="#6e7681" points="1501.9,-1146.53 1511.25,-1151.51 1507.05,-1141.79 1501.9,-1146.53"/>
</g>
<!-- player_edge_opp_corner&#45;&gt;move_draw -->
<g id="edge43" class="edge">
<title>player_edge_opp_corner&#45;&gt;move_draw</title>
<path fill="none" stroke="#6e7681" d="M1139.59,-1032.49C1164.66,-1042.75 1196.66,-1055.51 1225.49,-1066 1238.86,-1070.87 1253.34,-1075.82 1267.02,-1080.36"/>
<polygon fill="#6e7681" stroke="#6e7681" points="1265.76,-1083.63 1276.35,-1083.43 1267.95,-1076.98 1265.76,-1083.63"/>
</g>
<!-- player_edge_adj_corner&#45;&gt;win -->
<g id="edge45" class="edge">
<title>player_edge_adj_corner&#45;&gt;win</title>
<path fill="none" stroke="#6e7681" d="M1098.29,-741.7C1110.72,-669.43 1160.08,-405.57 1225.49,-358 1353.87,-264.65 1471.45,-531.78 1512.54,-639.85"/>
<polygon fill="#6e7681" stroke="#6e7681" points="1509.17,-640.85 1515.96,-648.98 1515.73,-638.39 1509.17,-640.85"/>
</g>
<!-- player_edge_adj_corner&#45;&gt;fork -->
<g id="edge46" class="edge">
<title>player_edge_adj_corner&#45;&gt;fork</title>
<path fill="none" stroke="#6e7681" d="M1094.59,-741.77C1093.38,-677.2 1099.04,-458.31 1225.49,-367 1266.07,-337.7 1300.38,-413.22 1316.22,-457.13"/>
<polygon fill="#6e7681" stroke="#6e7681" points="1312.84,-458.06 1319.44,-466.36 1319.45,-455.76 1312.84,-458.06"/>
</g>
<!-- player_edge_opp_edge&#45;&gt;win -->
<g id="edge47" class="edge">
<title>player_edge_opp_edge&#45;&gt;win</title>
<path fill="none" stroke="#6e7681" d="M1160.53,-813.5C1168.81,-808.89 1176.47,-803.14 1182.49,-796 1238.58,-729.47 1157.54,-659.35 1225.49,-605 1295.69,-548.85 1342.72,-575.82 1427.74,-605 1453.97,-614 1478.62,-632.98 1496.91,-649.96"/>
<polygon fill="#6e7681" stroke="#6e7681" points="1494.12,-652.13 1503.76,-656.53 1498.97,-647.08 1494.12,-652.13"/>
</g>
<!-- player_edge_opp_edge&#45;&gt;fork -->
<g id="edge48" class="edge">
<title>player_edge_opp_edge&#45;&gt;fork</title>
<path fill="none" stroke="#6e7681" d="M1162.12,-813.59C1169.95,-808.97 1177.07,-803.2 1182.49,-796 1234.39,-727.04 1161.17,-467.55 1225.49,-410 1253.37,-385.05 1288.82,-427.61 1309.19,-458.44"/>
<polygon fill="#6e7681" stroke="#6e7681" points="1306.1,-460.11 1314.43,-466.66 1312.01,-456.35 1306.1,-460.11"/>
</g>
<!-- player_edge_opp&#45;&gt;win -->
<g id="edge49" class="edge">
<title>player_edge_opp&#45;&gt;win</title>
<path fill="none" stroke="#6e7681" d="M1121.37,-904.38C1140.88,-903.21 1166.78,-898.32 1182.49,-882 1246.45,-815.55 1153.84,-737.06 1225.49,-679 1299.79,-618.79 1421.41,-646.25 1485.47,-667.13"/>
<polygon fill="#6e7681" stroke="#6e7681" points="1484.33,-670.44 1494.92,-670.31 1486.56,-663.8 1484.33,-670.44"/>
</g>
<!-- player_edge_opp&#45;&gt;fork -->
<g id="edge50" class="edge">
<title>player_edge_opp&#45;&gt;fork</title>
<path fill="none" stroke="#6e7681" d="M1121.47,-904.87C1141.31,-904 1167.59,-899.27 1182.49,-882 1245.08,-809.46 1154.45,-517.28 1225.49,-453 1244.44,-435.86 1272.5,-447.23 1294.1,-461.11"/>
<polygon fill="#6e7681" stroke="#6e7681" points="1292.04,-463.94 1302.27,-466.72 1296,-458.17 1292.04,-463.94"/>
</g>
<!-- player_edge_adj&#45;&gt;win -->
<g id="edge51" class="edge">
<title>player_edge_adj&#45;&gt;win</title>
<path fill="none" stroke="#6e7681" d="M1344.36,-885.54C1378.09,-848.33 1454.68,-763.86 1497.53,-716.6"/>
<polygon fill="#6e7681" stroke="#6e7681" points="1499.98,-719.11 1504.1,-709.35 1494.79,-714.41 1499.98,-719.11"/>
</g>
<!-- player_edge_adj&#45;&gt;checked_draw -->
<g id="edge52" class="edge">
<title>player_edge_adj&#45;&gt;checked_draw</title>
<path fill="none" stroke="#6e7681" d="M1354.01,-906.98C1368.81,-909.8 1386.84,-915.3 1399.74,-926 1469.69,-984 1506.31,-1090.15 1520.65,-1141.55"/>
<polygon fill="#6e7681" stroke="#6e7681" points="1517.23,-1142.31 1523.21,-1151.06 1523.99,-1140.49 1517.23,-1142.31"/>
</g>
</g>
</svg>
